<svg id="Layer_1" data-name="Layer 1" xmlns="http://www.w3.org/2000/svg" viewBox="0 0 163.3 34.96"><defs><style>.cls-1{fill:#f0c52e;}</style></defs><title>logo-device-orange</title><path class="cls-1" d="M.35.7V34.3H13.88A15.7,15.7,0,0,0,25.6,29.48a16.47,16.47,0,0,0,4.71-12,16.47,16.47,0,0,0-4.71-12A15.7,15.7,0,0,0,13.88.7ZM8.08,26.91V8.09h5.8a8.61,8.61,0,0,1,6.5,2.57,9.39,9.39,0,0,1,2.49,6.84,9.4,9.4,0,0,1-2.49,6.84,8.69,8.69,0,0,1-6.5,2.57ZM42.88,21H55v-7.3H42.88V8.09H56.17V.7h-21V34.3H56.41V26.91H42.88V21ZM79.23,34.3,90.24.7H81.79L74.3,25.42,66.81.7H58.35l11,33.6Zm14.4,0h7.73V.7H93.63Zm38.61-1.42a15.49,15.49,0,0,0,6-5.68l-6.67-3.84a7.48,7.48,0,0,1-3.16,3,10,10,0,0,1-4.67,1.1,9.53,9.53,0,0,1-7.17-2.74,9.9,9.9,0,0,1-2.69-7.24,9.92,9.92,0,0,1,2.69-7.25,9.57,9.57,0,0,1,7.17-2.74,10,10,0,0,1,4.64,1.08,7.63,7.63,0,0,1,3.19,3.05l6.67-3.84a15.94,15.94,0,0,0-6.09-5.69A17.47,17.47,0,0,0,123.78,0a17.13,17.13,0,0,0-17.59,16.64v.84A17.11,17.11,0,0,0,122.94,35h.84a17.47,17.47,0,0,0,8.46-2.09ZM150.12,21H162.2v-7.3H150.12V8.09h13.29V.7h-21V34.3h21.26V26.91H150.12V21Z" transform="translate(-0.35 -0.02)"/></svg>